<?xml version="1.0" encoding="UTF-8"?>
<!-- Generator: visioncortex VTracer 0.6.12 -->
<svg version="1.1" xmlns="http://www.w3.org/2000/svg" width="1024" height="1024">
<path d="M0 0 C84.411 -1.381 173.774 25.432 240.487 77.79 C243.13 79.847 245.827 81.826 248.52 83.816 C256.888 90.101 264.901 96.732 272.625 103.793 C274.036 105.069 275.453 106.339 276.899 107.575 C282.458 112.34 287.662 117.431 292.825 122.617 C294.267 124.064 295.714 125.506 297.162 126.947 C302.39 132.172 307.413 137.504 312.207 143.129 C313.144 144.189 314.083 145.248 315.023 146.305 C333.762 167.599 348.644 191.302 362.207 216.129 C362.724 217.076 363.242 218.023 363.775 218.998 C389.639 266.668 408.182 320.478 408.41 375.215 C408.417 376.342 408.424 377.469 408.431 378.63 C408.449 382.255 408.455 385.879 408.457 389.504 C408.457 390.123 408.457 390.123 408.459 393.253 C408.443 411.416 408.046 429.159 405.207 447.129 C405.035 448.266 404.864 449.402 404.687 450.574 C397.386 498.03 380.996 542.044 358.207 584.129 C357.81 584.868 357.414 585.607 357.005 586.369 C347.301 604.359 335.234 621.712 322.293 637.531 C320.677 639.543 319.108 641.57 317.559 643.633 C317.106 644.233 316.654 644.833 316.188 645.451 C315.297 646.635 314.411 647.824 313.531 649.016 C312.47 650.423 311.343 651.781 310.207 653.129 C309.547 653.129 308.887 653.129 308.207 653.129 C308.103 653.391 308.103 653.391 307.578 654.719 C305.627 658.149 302.97 660.847 300.27 663.691 C299.669 664.329 299.067 664.966 298.448 665.623 C293.023 671.341 287.504 676.967 281.957 682.566 C281.54 682.99 281.54 682.99 279.43 685.133 C278.65 685.914 277.87 686.695 277.066 687.5 C276.37 688.201 275.674 688.901 274.956 689.623 C273.207 691.129 273.207 691.129 271.207 691.129 C271.207 691.789 271.207 692.449 271.207 693.129 C269.746 694.637 269.746 694.637 267.832 696.254 C267.519 696.523 267.519 696.523 265.934 697.887 C264.207 699.129 264.207 699.129 262.207 699.129 C262.207 699.789 262.207 700.449 262.207 701.129 C260.09 703.074 260.09 703.074 257.332 705.254 C256.427 705.978 255.522 706.703 254.59 707.449 C252.207 709.129 252.207 709.129 250.207 709.129 C250.207 709.789 250.207 710.449 250.207 711.129 C248.258 712.723 248.258 712.723 245.52 714.629 C239.976 718.554 234.605 722.654 229.25 726.832 C220.908 733.129 220.908 733.129 218.207 733.129 C218.207 733.789 218.207 734.449 218.207 735.129 C216.657 736.299 216.657 736.299 214.465 737.598 C213.655 738.081 212.845 738.565 212.011 739.063 C211.127 739.58 210.243 740.097 209.332 740.629 C208.427 741.164 207.523 741.698 206.591 742.249 C197.884 747.37 189.111 752.36 180.207 757.129 C179.886 757.301 179.886 757.301 178.259 758.174 C158.189 768.827 136.985 776.761 115.207 783.129 C114.276 783.402 113.346 783.675 112.387 783.956 C64.45 797.767 12.772 802.632 -36.793 796.129 C-37.819 795.995 -38.845 795.86 -39.901 795.722 C-75.412 790.918 -108.693 781.886 -141.793 768.129 C-142.209 767.957 -142.209 767.957 -144.313 767.085 C-159.343 760.81 -173.796 753.452 -187.793 745.129 C-188.486 744.718 -189.18 744.306 -189.895 743.883 C-199.521 738.151 -208.888 732.141 -218.066 725.715 C-222.543 722.584 -227.129 719.631 -231.73 716.688 C-232.411 716.173 -233.092 715.659 -233.793 715.129 C-233.793 714.469 -233.793 713.809 -233.793 713.129 C-234.48 712.914 -235.167 712.698 -235.875 712.477 C-239.648 710.734 -242.386 708.304 -245.48 705.566 C-251.589 700.231 -251.589 700.231 -253.793 699.129 C-253.793 698.469 -253.793 697.809 -253.793 697.129 C-254.319 696.92 -254.845 696.711 -255.387 696.496 C-258.792 694.561 -261.47 691.934 -264.293 689.254 C-264.934 688.649 -265.576 688.044 -266.237 687.421 C-291.655 663.286 -291.655 663.286 -299.844 652.613 C-301.54 650.452 -303.3 648.42 -305.129 646.371 C-308.74 642.27 -311.948 637.959 -315.105 633.504 C-315.666 632.719 -316.226 631.934 -316.804 631.125 C-317.938 629.538 -319.07 627.949 -320.2 626.359 C-321.623 624.367 -323.059 622.386 -324.504 620.41 C-379.439 545.088 -409.672 444.811 -397.384 344.776 C-386.692 278.77 -362.978 218.939 -322.793 165.129 C-322.342 164.523 -321.891 163.918 -321.426 163.293 C-308.704 146.287 -294.517 130.786 -279.543 115.754 C-278.703 114.909 -277.863 114.065 -276.998 113.195 C-272.092 108.301 -267.088 103.6 -261.793 99.129 C-261.194 98.623 -260.594 98.117 -259.977 97.596 C-185.964 35.747 -95.96 3.261 0 0 Z M52.05 92.384 C40.58 93.243 29.16 93.191 17.663 93.082 C12.867 93.039 8.071 93.016 3.275 92.992 C-5.615 92.946 -14.503 92.893 -23.392 92.807 C-29.616 92.747 -35.839 92.712 -42.063 92.693 C-44.413 92.682 -46.763 92.661 -49.113 92.631 C-62.971 92.456 -74.755 93.334 -87.793 98.129 C-90.104 98.862 -92.417 99.591 -94.73 100.316 C-119.611 109.525 -137.886 126.445 -149.793 150.129 C-161.122 175.633 -159.07 204.037 -158.93 231.334 C-158.91 235.833 -158.901 240.333 -158.891 244.832 C-158.869 253.598 -158.835 262.363 -158.793 271.129 C-154.544 270.547 -150.52 269.891 -146.418 268.629 C-145.565 268.371 -144.711 268.113 -143.832 267.848 C-141.793 267.129 -141.793 267.129 -140.793 266.129 C-140.716 263.403 -140.702 260.702 -140.73 257.977 C-140.739 256.245 -140.748 254.514 -140.757 252.782 C-140.763 251.87 -140.769 250.957 -140.775 250.017 C-141.297 165.703 -141.297 165.703 -114.668 137.566 C-97.442 120.764 -75.01 115.806 -51.715 115.887 C-46.722 115.965 -41.758 116.253 -36.777 116.602 C-28.079 117.204 -19.383 117.566 -10.668 117.816 C-9.837 117.84 -9.007 117.865 -8.151 117.889 C13.757 118.479 35.517 117.106 57.346 115.333 C80.655 113.674 100.268 119.693 119.207 133.129 C119.881 133.597 120.555 134.065 121.25 134.547 C138.178 147.615 145.676 168.267 148.733 188.631 C149.396 194.096 149.438 199.568 149.523 205.066 C149.544 206.187 149.565 207.308 149.586 208.462 C149.651 212.018 149.711 215.573 149.77 219.129 C149.813 221.549 149.856 223.97 149.9 226.391 C150.007 232.303 150.109 238.216 150.207 244.129 C149.474 243.385 148.741 242.641 147.985 241.874 C147.002 240.882 146.019 239.89 145.035 238.898 C144.554 238.41 144.074 237.921 143.579 237.418 C139.786 233.602 135.764 230.212 131.504 226.922 C129.332 225.227 127.268 223.456 125.207 221.629 C122.207 219.129 122.207 219.129 120.207 219.129 C120.207 218.469 120.207 217.809 120.207 217.129 C118.494 215.544 116.71 214.033 114.895 212.566 C114.401 212.164 114.401 212.164 111.906 210.125 C109.207 208.129 109.207 208.129 106.207 207.129 C106.207 206.469 106.207 205.809 106.207 205.129 C100.986 201.263 95.543 198.506 89.207 197.129 C88.079 198.71 86.954 200.294 85.832 201.879 C85.206 202.761 84.579 203.642 83.934 204.551 C82.492 206.703 81.292 208.784 80.207 211.129 C79.547 211.129 78.887 211.129 78.207 211.129 C78.207 211.789 78.207 212.449 78.207 213.129 C77.547 213.129 76.887 213.129 76.207 213.129 C76.207 213.789 76.207 214.449 76.207 215.129 C75.686 215.362 75.165 215.596 74.629 215.836 C72.054 217.211 69.72 218.827 67.336 220.505 C41.909 238.247 10.415 243.507 -20.008 238.887 C-27.093 237.468 -33.941 235.407 -40.793 233.129 C-41.372 232.938 -41.372 232.938 -44.301 231.973 C-51.534 229.393 -57.71 225.965 -64.113 221.801 C-66.793 220.129 -66.793 220.129 -69.793 219.129 C-69.793 218.469 -69.793 217.809 -69.793 217.129 C-70.804 216.325 -71.814 215.52 -72.855 214.691 C-80.098 208.651 -84.095 200.367 -86.969 191.539 C-87.743 189.276 -88.672 187.238 -89.793 185.129 C-90.123 185.129 -90.453 185.129 -90.793 185.129 C-91.006 191.811 -90.523 197.914 -89.105 204.441 C-89.018 204.865 -89.018 204.865 -88.573 207.007 C-87.027 214.337 -85.291 221.624 -83.456 228.886 C-80.918 239.134 -80.606 249.11 -80.606 259.626 C-80.606 261.183 -80.601 262.739 -80.593 264.296 C-80.547 273.625 -80.952 282.522 -82.418 291.754 C-82.975 295.888 -83.362 299.063 -81.332 302.867 C-79.212 304.904 -77.089 306.477 -74.58 308 C-72.547 309.284 -70.659 310.699 -68.746 312.156 C-24.104 345.953 27.724 360.014 83.207 361.129 C83.873 361.149 84.54 361.17 85.227 361.191 C135.198 362.682 185.471 350.781 233.207 337.129 C234.02 336.896 234.832 336.664 235.67 336.425 C237.348 335.945 239.026 335.464 240.703 334.984 C244.912 333.78 249.122 332.578 253.332 331.379 C254.151 331.145 254.971 330.912 255.815 330.672 C270.165 326.595 284.548 322.941 299.207 320.129 C299.577 320.058 299.577 320.058 301.448 319.697 C309.293 318.252 317.126 317.926 325.082 317.816 C325.516 317.807 325.516 317.807 327.714 317.762 C336.303 317.774 343.495 319.624 349.832 325.594 C352.632 328.72 353.118 331.343 353.582 335.441 C352.862 342.527 349.046 348.919 343.586 353.484 C334.078 360.398 321.829 365.61 310.445 368.461 C308.207 369.129 308.207 369.129 305.246 370.469 C276.503 383.019 240.938 387.519 210.207 392.129 C209.036 392.305 207.865 392.481 206.659 392.663 C176.092 397.18 145.276 399.765 114.457 401.816 C113.546 401.877 112.636 401.938 111.697 402.001 C90.065 403.428 68.445 404.288 46.77 404.691 C46.222 404.702 46.222 404.702 43.454 404.755 C-43.209 406.388 -131.215 403.92 -330.605 351.391 C-333.793 349.129 -333.793 349.129 -335.793 349.129 C-336.082 348.531 -336.37 347.933 -336.668 347.316 C-337.793 345.129 -337.793 345.129 -339.793 342.129 C-340.415 338.052 -340.681 335.613 -338.543 332.039 C-331.314 323.32 -322.552 319.083 -311.793 316.129 C-311.027 315.914 -310.262 315.698 -309.473 315.477 C-294.555 311.916 -278.808 312.844 -263.793 315.129 C-263.062 315.238 -262.331 315.347 -261.578 315.459 C-249.487 317.361 -237.832 320.777 -226.106 324.206 C-100.729 360.766 -100.729 360.766 -59.793 359.129 C-59.793 358.469 -59.793 357.809 -59.793 357.129 C-60.397 356.888 -61 356.646 -61.622 356.398 C-98.872 341.465 -143.95 318.174 -160.793 279.129 C-161.698 276.11 -162.282 273.248 -162.793 270.129 C-214.063 269.231 -314.709 276.777 -354.793 313.129 C-361.581 320.044 -365.818 328.414 -366.293 338.191 C-365.936 345.681 -363.011 352.894 -357.84 358.359 C-330.686 381.834 -288.041 390.566 -253.793 398.129 C-253.451 398.204 -253.451 398.204 -251.723 398.586 C-228.59 403.661 -205.283 407.416 -181.854 410.828 C-178.848 411.267 -175.844 411.718 -172.84 412.168 C-170.949 412.447 -169.059 412.726 -167.168 413.004 C-166.358 413.124 -165.548 413.244 -164.713 413.368 C-161.035 413.893 -157.504 414.174 -153.793 414.129 C-153.624 414.727 -153.456 415.325 -153.282 415.941 C-145.834 441.619 -133.643 468.623 -109.391 482.504 C-107.552 483.435 -105.676 484.292 -103.793 485.129 C-104.38 473.074 -105.437 461.121 -106.793 449.129 C-107.373 449.005 -107.953 448.881 -108.551 448.754 C-114.218 447.258 -117.161 445.414 -120.403 440.527 C-123.032 435.991 -125.388 431.349 -127.668 426.629 C-129.359 423.164 -131.05 419.699 -132.793 416.129 C-118.933 416.129 -105.073 416.129 -90.793 416.129 C-90.422 419.078 -90.05 422.028 -89.668 425.066 C-85.648 454.039 -76.598 481.873 -63.793 508.129 C-63.599 508.535 -63.599 508.535 -62.617 510.588 C-52.921 530.697 -40.09 548.947 -27.004 566.969 C-24.061 571.175 -21.372 575.517 -18.682 579.887 C-14.535 586.606 -10.16 593.163 -5.75 599.711 C-3.817 602.583 -1.92 605.474 -0.055 608.391 C10.022 624.072 10.022 624.072 19.207 627.129 C33.063 628.657 45.605 624.181 56.438 615.645 C66.188 607.677 75.162 598.815 83.207 589.129 C83.648 588.602 84.089 588.074 84.543 587.531 C91.543 579.125 97.857 570.7 103.207 561.129 C103.504 560.604 103.504 560.604 105.004 557.945 C114.309 540.467 118.589 521.353 122.589 502.104 C123.13 499.5 123.683 496.9 124.246 494.301 C124.908 491.245 125.562 488.188 126.207 485.129 C127.486 485.232 128.765 485.335 130.082 485.441 C137.079 485.387 142.313 482.667 147.523 478.098 C163.019 461.928 175.221 436.213 178.207 414.129 C179.357 414.02 180.506 413.911 181.691 413.799 C193.325 412.659 204.815 411.062 216.332 409.066 C217.2 408.917 218.068 408.768 218.962 408.614 C345.505 386.73 345.505 386.73 367.207 358.129 C373.537 347.288 376.39 338.731 374.207 326.129 C367.648 308.968 350.23 300.602 334.535 293.496 C332.759 292.706 330.983 291.917 329.207 291.129 C328.825 290.955 328.825 290.955 326.893 290.075 C305.327 280.268 282.132 273.01 259.207 267.129 C258.728 267.005 258.728 267.005 256.307 266.38 C241.971 262.76 227.601 260.3 212.957 258.379 C212.192 258.278 211.428 258.177 210.64 258.073 C197.53 256.365 184.382 255.203 171.207 254.129 C171.2 253.503 171.2 253.503 171.163 250.338 C170.634 208.179 170.634 208.179 168.895 188.691 C168.789 187.436 168.684 186.18 168.575 184.887 C167.345 172.353 164.74 159.862 159.145 148.504 C158.76 147.713 158.376 146.921 157.98 146.106 C147.174 124.725 127.261 107.47 104.525 99.888 C103.76 99.638 102.995 99.387 102.207 99.129 C101.302 98.823 100.396 98.517 99.463 98.202 C83.28 92.834 68.993 91.015 52.05 92.384 Z " fill="#000000" transform="translate(511.79296875,102.87109375)"/>
<path d="M0 0 C2.608 1.263 5.211 2.535 7.812 3.812 C8.55 4.169 9.288 4.525 10.049 4.893 C10.761 5.244 11.473 5.595 12.207 5.957 C12.862 6.276 13.516 6.596 14.191 6.925 C17.104 8.656 18.73 10.142 19.754 13.398 C20.761 24.041 12.655 35.161 6.375 43 C3.793 46.117 1.339 48.703 -2 51 C-1.867 50.296 -1.734 49.592 -1.598 48.867 C1.337 32.456 1.235 16.544 0 0 Z " fill="#000000" transform="translate(665,351)"/>
<path d="M0 0 C-1.444 16.07 -10.539 37.376 -23 48 C-24.988 48.805 -24.988 48.805 -27 49 C-27.99 48.34 -28.98 47.68 -30 47 C-29.675 36.349 -27.741 26.843 -24.938 16.625 C-24.555 15.196 -24.175 13.766 -23.795 12.336 C-22.877 8.887 -21.943 5.442 -21 2 C-17.875 1.665 -14.75 1.332 -11.625 1 C-11.18 0.952 -11.18 0.952 -8.93 0.711 C-8.504 0.666 -8.504 0.666 -6.352 0.438 C-5.959 0.396 -5.959 0.396 -3.971 0.184 C-2 0 -2 0 0 0 Z " fill="#000000" transform="translate(672,516)"/>
<path d="M0 0 C8.58 0 17.16 0 26 0 C27.023 3.069 27.199 5.382 27.316 8.602 C27.337 9.162 27.337 9.162 27.444 11.998 C27.483 13.195 27.522 14.392 27.562 15.625 C27.604 16.857 27.645 18.089 27.687 19.358 C27.799 22.905 27.902 26.452 28 30 C28.012 30.407 28.012 30.407 28.075 32.467 C28.591 51.08 26.962 69.93 24.562 88.375 C24.508 88.814 24.508 88.814 24.229 91.036 C23.508 96.155 22.254 100.342 20 105 C16 105 16 105 14.141 103.27 C-1.122 83.434 -1.122 83.434 -1.129 74.906 C-1.133 73.839 -1.136 72.772 -1.139 71.673 C-1.138 71.091 -1.138 71.091 -1.133 68.145 C-1.134 66.937 -1.135 65.729 -1.136 64.485 C-1.136 61.91 -1.135 59.335 -1.13 56.76 C-1.125 52.901 -1.13 49.044 -1.137 45.186 C-1.14 30.09 -0.77 15.077 0 0 Z " fill="#000000" transform="translate(494,522)"/>
<path d="M0 0 C0.683 0.07 1.366 0.14 2.069 0.212 C6.437 0.759 9.842 1.943 13.625 4.188 C14.75 6 14.75 6 14.625 8.188 C11.397 14.936 5.33 18.567 -1.375 21.5 C-14.98 24.618 -32.956 25.512 -45.488 18.523 C-49.645 15.58 -54.5 11.91 -56.098 6.938 C-56.189 6.36 -56.281 5.783 -56.375 5.188 C-44.012 -5.287 -15.263 -1.669 0 0 Z " fill="#000000" transform="translate(548.375,654.8125)"/>
</svg>
